# xmcd
#
# Track frame offsets: 
#        150
#        19241
#        38977
#        52959
#        72814
#        92453
#        110859
#        123923
#        138942
#        173480
#        186957
#        198231
#
# Disc length: 2836 seconds
#
# Revision: 0
# Processed by: cddbd v1.4PL0 Copyright (c) Steve Scherf et al.
# Submitted via: ExactAudioCopy v0.95a4
#
DISCID=9e0b120c
DTITLE=Little Brother Montgomery - No Special Rider
DYEAR=1999
DGENRE=Blues
TTITLE0=No Specail Rider
TTITLE1=Prisoner Bound Blues
TTITLE2=You Gotta See Your Mama Every Night
TTITLE3=Cow Cow Blues
TTITLE4=Gin House Blues
TTITLE5=New Vicksburg Blues
TTITLE6=London Shout
TTITLE7=Oh, Daddy
TTITLE8=Little Brother's Early Pieces And History
TTITLE9=No Special Boogie
TTITLE10=Farrish Street Jive
TTITLE11=Muleface Blues
EXTD=
EXTT0=
EXTT1=
EXTT2=
EXTT3=
EXTT4=
EXTT5=
EXTT6=
EXTT7=
EXTT8=
EXTT9=
EXTT10=
EXTT11=
PLAYORDER=
